<svg aria-roledescription="er" role="graphics-document document" viewBox="0 0 880.30859375 1148" style="max-width: 880.30859375px;" xmlns:xlink="http://www.w3.org/1999/xlink" xmlns="http://www.w3.org/2000/svg" width="100%" id="mermaid-1713097293534"><style>#mermaid-1713097293534{font-family:"trebuchet ms",verdana,arial,sans-serif;font-size:16px;fill:#333;}#mermaid-1713097293534 .error-icon{fill:#552222;}#mermaid-1713097293534 .error-text{fill:#552222;stroke:#552222;}#mermaid-1713097293534 .edge-thickness-normal{stroke-width:2px;}#mermaid-1713097293534 .edge-thickness-thick{stroke-width:3.5px;}#mermaid-1713097293534 .edge-pattern-solid{stroke-dasharray:0;}#mermaid-1713097293534 .edge-pattern-dashed{stroke-dasharray:3;}#mermaid-1713097293534 .edge-pattern-dotted{stroke-dasharray:2;}#mermaid-1713097293534 .marker{fill:#333333;stroke:#333333;}#mermaid-1713097293534 .marker.cross{stroke:#333333;}#mermaid-1713097293534 svg{font-family:"trebuchet ms",verdana,arial,sans-serif;font-size:16px;}#mermaid-1713097293534 .entityBox{fill:#ECECFF;stroke:#9370DB;}#mermaid-1713097293534 .attributeBoxOdd{fill:#ffffff;stroke:#9370DB;}#mermaid-1713097293534 .attributeBoxEven{fill:#f2f2f2;stroke:#9370DB;}#mermaid-1713097293534 .relationshipLabelBox{fill:hsl(80, 100%, 96.2745098039%);opacity:0.7;background-color:hsl(80, 100%, 96.2745098039%);}#mermaid-1713097293534 .relationshipLabelBox rect{opacity:0.5;}#mermaid-1713097293534 .relationshipLine{stroke:#333333;}#mermaid-1713097293534 .entityTitleText{text-anchor:middle;font-size:18px;fill:#333;}#mermaid-1713097293534 #MD_PARENT_START{fill:#f5f5f5!important;stroke:#333333!important;stroke-width:1;}#mermaid-1713097293534 #MD_PARENT_END{fill:#f5f5f5!important;stroke:#333333!important;stroke-width:1;}#mermaid-1713097293534 :root{--mermaid-font-family:"trebuchet ms",verdana,arial,sans-serif;}</style><g/><defs><marker orient="auto" markerHeight="240" markerWidth="190" refY="7" refX="0" id="MD_PARENT_START"><path d="M 18,7 L9,13 L1,7 L9,1 Z"/></marker></defs><defs><marker orient="auto" markerHeight="28" markerWidth="20" refY="7" refX="19" id="MD_PARENT_END"><path d="M 18,7 L9,13 L1,7 L9,1 Z"/></marker></defs><defs><marker orient="auto" markerHeight="18" markerWidth="18" refY="9" refX="0" id="ONLY_ONE_START"><path d="M9,0 L9,18 M15,0 L15,18" fill="none" stroke="gray"/></marker></defs><defs><marker orient="auto" markerHeight="18" markerWidth="18" refY="9" refX="18" id="ONLY_ONE_END"><path d="M3,0 L3,18 M9,0 L9,18" fill="none" stroke="gray"/></marker></defs><defs><marker orient="auto" markerHeight="18" markerWidth="30" refY="9" refX="0" id="ZERO_OR_ONE_START"><circle r="6" cy="9" cx="21" fill="white" stroke="gray"/><path d="M9,0 L9,18" fill="none" stroke="gray"/></marker></defs><defs><marker orient="auto" markerHeight="18" markerWidth="30" refY="9" refX="30" id="ZERO_OR_ONE_END"><circle r="6" cy="9" cx="9" fill="white" stroke="gray"/><path d="M21,0 L21,18" fill="none" stroke="gray"/></marker></defs><defs><marker orient="auto" markerHeight="36" markerWidth="45" refY="18" refX="18" id="ONE_OR_MORE_START"><path d="M0,18 Q 18,0 36,18 Q 18,36 0,18 M42,9 L42,27" fill="none" stroke="gray"/></marker></defs><defs><marker orient="auto" markerHeight="36" markerWidth="45" refY="18" refX="27" id="ONE_OR_MORE_END"><path d="M3,9 L3,27 M9,18 Q27,0 45,18 Q27,36 9,18" fill="none" stroke="gray"/></marker></defs><defs><marker orient="auto" markerHeight="36" markerWidth="57" refY="18" refX="18" id="ZERO_OR_MORE_START"><circle r="6" cy="18" cx="48" fill="white" stroke="gray"/><path d="M0,18 Q18,0 36,18 Q18,36 0,18" fill="none" stroke="gray"/></marker></defs><defs><marker orient="auto" markerHeight="36" markerWidth="57" refY="18" refX="39" id="ZERO_OR_MORE_END"><circle r="6" cy="18" cx="9" fill="white" stroke="gray"/><path d="M21,18 Q39,0 57,18 Q39,36 21,18" fill="none" stroke="gray"/></marker></defs><path style="stroke: gray; fill: none;" marker-start="url(#ONLY_ONE_START)" marker-end="url(#ZERO_OR_MORE_END)" d="M496.558,107L496.558,115.333C496.558,123.667,496.558,140.333,496.558,157C496.558,173.667,496.558,190.333,496.558,198.667L496.558,207" class="er relationshipLine"/><path style="stroke: gray; fill: none;" marker-start="url(#ONLY_ONE_START)" marker-end="url(#ZERO_OR_MORE_END)" d="M427.311,321.154L402.007,335.462C376.703,349.77,326.096,378.385,300.792,401.026C275.488,423.667,275.488,440.333,275.488,448.667L275.488,457" class="er relationshipLine"/><path style="stroke: gray; fill: none;" marker-start="url(#ONLY_ONE_START)" marker-end="url(#ZERO_OR_MORE_END)" d="M427.311,303.996L373.267,321.164C319.223,338.331,211.135,372.665,157.091,410.666C103.047,448.667,103.047,490.333,103.047,532C103.047,573.667,103.047,615.333,103.047,653.25C103.047,691.167,103.047,725.333,103.047,742.417L103.047,759.5" class="er relationshipLine"/><path style="stroke: gray; fill: none;" marker-start="url(#ONLY_ONE_START)" marker-end="url(#ZERO_OR_MORE_END)" d="M275.488,607L275.488,615.333C275.488,623.667,275.488,640.333,285.198,659.878C294.907,679.423,314.326,701.846,324.036,713.057L333.745,724.269" class="er relationshipLine"/><path style="stroke: gray; fill: none;" marker-start="url(#ONLY_ONE_START)" marker-end="url(#ZERO_OR_MORE_END)" d="M496.451,357L496.44,365.333C496.428,373.667,496.404,390.333,496.392,419.5C496.38,448.667,496.38,490.333,496.38,532C496.38,573.667,496.38,615.333,491.835,644.5C487.29,673.667,478.2,690.333,473.655,698.667L469.11,707" class="er relationshipLine"/><path style="stroke: gray; fill: none;" marker-start="url(#ONLY_ONE_START)" marker-end="url(#ZERO_OR_MORE_END)" d="M333.745,843.86L280.234,864.884C226.722,885.907,119.699,927.953,76.47,960.81C33.241,993.667,53.806,1017.333,64.089,1029.167L74.371,1041" class="er relationshipLine"/><path style="stroke: gray; fill: none;" marker-start="url(#ONLY_ONE_START)" marker-end="url(#ZERO_OR_MORE_END)" d="M106.369,867.5L107.42,884.583C108.472,901.667,110.574,935.833,110.529,964.75C110.485,993.667,108.293,1017.333,107.198,1029.167L106.102,1041" class="er relationshipLine"/><path style="stroke: gray; fill: none;" marker-start="url(#ONLY_ONE_START)" marker-end="url(#ZERO_OR_MORE_END)" d="M434.271,920L436.09,928.333C437.909,936.667,441.547,953.333,455.707,971.75C469.866,990.167,494.546,1010.333,506.887,1020.417L519.227,1030.5" class="er relationshipLine"/><path style="stroke: gray; fill: none;" marker-start="url(#ONLY_ONE_START)" marker-end="url(#ZERO_OR_MORE_END)" d="M565.804,344.514L577.34,354.929C588.876,365.343,611.948,386.171,623.483,417.419C635.019,448.667,635.019,490.333,635.019,532C635.019,573.667,635.019,615.333,635.019,662.25C635.019,709.167,635.019,761.333,635.019,813.5C635.019,865.667,635.019,917.833,628.954,954C622.889,990.167,610.759,1010.333,604.694,1020.417L598.629,1030.5" class="er relationshipLine"/><path style="stroke: gray; fill: none;" marker-start="url(#ONLY_ONE_START)" marker-end="url(#ZERO_OR_MORE_END)" d="M488.301,850.827L529.42,870.69C570.54,890.552,652.78,930.276,698.926,958.471C745.073,986.667,755.126,1003.333,760.153,1011.667L765.18,1020" class="er relationshipLine"/><path style="stroke: gray; fill: none;" marker-start="url(#ONLY_ONE_START)" marker-end="url(#ZERO_OR_MORE_END)" d="M565.804,306.659L612.766,323.383C659.728,340.106,753.652,373.553,800.614,411.11C847.575,448.667,847.575,490.333,847.575,532C847.575,573.667,847.575,615.333,847.575,662.25C847.575,709.167,847.575,761.333,847.575,813.5C847.575,865.667,847.575,917.833,843.583,952.25C839.591,986.667,831.607,1003.333,827.614,1011.667L823.622,1020" class="er relationshipLine"/><g transform="translate(425.4882621765137,20 )" id="entity-role-2a6b1fd8-1042-550a-a9b0-e8ed06eb08ab"><rect height="87" width="142.13873291015625" y="0" x="0" class="er entityBox"/><text style="dominant-baseline: middle; text-anchor: middle; font-size: 12px;" transform="translate(71.06936645507812,12)" y="0" x="0" id="text-entity-role-2a6b1fd8-1042-550a-a9b0-e8ed06eb08ab" class="er entityLabel">role</text><rect height="21" width="59.28125" y="24" x="0" class="er attributeBoxOdd"/><text style="dominant-baseline: middle; font-size: 10.2px;" transform="translate(5,34.5)" y="0" x="0" id="text-entity-role-2a6b1fd8-1042-550a-a9b0-e8ed06eb08ab-attr-1-type" class="er entityLabel">id</text><rect height="21" width="59.0625" y="24" x="59.28125" class="er attributeBoxOdd"/><text style="dominant-baseline: middle; font-size: 10.2px;" transform="translate(64.28125,34.5)" y="0" x="0" id="text-entity-role-2a6b1fd8-1042-550a-a9b0-e8ed06eb08ab-attr-1-name" class="er entityLabel">VARCHAR</text><rect height="21" width="23.79498291015625" y="24" x="118.34375" class="er attributeBoxOdd"/><text style="dominant-baseline: middle; font-size: 10.2px;" transform="translate(123.34375,34.5)" y="0" x="0" id="text-entity-role-2a6b1fd8-1042-550a-a9b0-e8ed06eb08ab-attr-1-key" class="er entityLabel">PK</text><rect height="21" width="59.28125" y="45" x="0" class="er attributeBoxEven"/><text style="dominant-baseline: middle; font-size: 10.2px;" transform="translate(5,55.5)" y="0" x="0" id="text-entity-role-2a6b1fd8-1042-550a-a9b0-e8ed06eb08ab-attr-2-type" class="er entityLabel">name</text><rect height="21" width="59.0625" y="45" x="59.28125" class="er attributeBoxEven"/><text style="dominant-baseline: middle; font-size: 10.2px;" transform="translate(64.28125,55.5)" y="0" x="0" id="text-entity-role-2a6b1fd8-1042-550a-a9b0-e8ed06eb08ab-attr-2-name" class="er entityLabel">VARCHAR</text><rect height="21" width="23.79498291015625" y="45" x="118.34375" class="er attributeBoxEven"/><text style="dominant-baseline: middle; font-size: 10.2px;" transform="translate(123.34375,55.5)" y="0" x="0" id="text-entity-role-2a6b1fd8-1042-550a-a9b0-e8ed06eb08ab-attr-2-key" class="er entityLabel"/><rect height="21" width="59.28125" y="66" x="0" class="er attributeBoxOdd"/><text style="dominant-baseline: middle; font-size: 10.2px;" transform="translate(5,76.5)" y="0" x="0" id="text-entity-role-2a6b1fd8-1042-550a-a9b0-e8ed06eb08ab-attr-3-type" class="er entityLabel">description</text><rect height="21" width="59.0625" y="66" x="59.28125" class="er attributeBoxOdd"/><text style="dominant-baseline: middle; font-size: 10.2px;" transform="translate(64.28125,76.5)" y="0" x="0" id="text-entity-role-2a6b1fd8-1042-550a-a9b0-e8ed06eb08ab-attr-3-name" class="er entityLabel">VARCHAR</text><rect height="21" width="23.79498291015625" y="66" x="118.34375" class="er attributeBoxOdd"/><text style="dominant-baseline: middle; font-size: 10.2px;" transform="translate(123.34375,76.5)" y="0" x="0" id="text-entity-role-2a6b1fd8-1042-550a-a9b0-e8ed06eb08ab-attr-3-key" class="er entityLabel"/></g><g transform="translate(427.3110160827637,207 )" id="entity-user-dad033c9-7a45-5f6a-ab5a-b5def405b2a6"><rect height="150" width="138.49322509765625" y="0" x="0" class="er entityBox"/><text style="dominant-baseline: middle; text-anchor: middle; font-size: 12px;" transform="translate(69.24661254882812,12)" y="0" x="0" id="text-entity-user-dad033c9-7a45-5f6a-ab5a-b5def405b2a6" class="er entityLabel">user</text><rect height="21" width="55.6357421875" y="24" x="0" class="er attributeBoxOdd"/><text style="dominant-baseline: middle; font-size: 10.2px;" transform="translate(5,34.5)" y="0" x="0" id="text-entity-user-dad033c9-7a45-5f6a-ab5a-b5def405b2a6-attr-1-type" class="er entityLabel">id</text><rect height="21" width="59.0625" y="24" x="55.6357421875" class="er attributeBoxOdd"/><text style="dominant-baseline: middle; font-size: 10.2px;" transform="translate(60.6357421875,34.5)" y="0" x="0" id="text-entity-user-dad033c9-7a45-5f6a-ab5a-b5def405b2a6-attr-1-name" class="er entityLabel">INTEGER</text><rect height="21" width="23.79498291015625" y="24" x="114.6982421875" class="er attributeBoxOdd"/><text style="dominant-baseline: middle; font-size: 10.2px;" transform="translate(119.6982421875,34.5)" y="0" x="0" id="text-entity-user-dad033c9-7a45-5f6a-ab5a-b5def405b2a6-attr-1-key" class="er entityLabel">PK</text><rect height="21" width="55.6357421875" y="45" x="0" class="er attributeBoxEven"/><text style="dominant-baseline: middle; font-size: 10.2px;" transform="translate(5,55.5)" y="0" x="0" id="text-entity-user-dad033c9-7a45-5f6a-ab5a-b5def405b2a6-attr-2-type" class="er entityLabel">name</text><rect height="21" width="59.0625" y="45" x="55.6357421875" class="er attributeBoxEven"/><text style="dominant-baseline: middle; font-size: 10.2px;" transform="translate(60.6357421875,55.5)" y="0" x="0" id="text-entity-user-dad033c9-7a45-5f6a-ab5a-b5def405b2a6-attr-2-name" class="er entityLabel">VARCHAR</text><rect height="21" width="23.79498291015625" y="45" x="114.6982421875" class="er attributeBoxEven"/><text style="dominant-baseline: middle; font-size: 10.2px;" transform="translate(119.6982421875,55.5)" y="0" x="0" id="text-entity-user-dad033c9-7a45-5f6a-ab5a-b5def405b2a6-attr-2-key" class="er entityLabel"/><rect height="21" width="55.6357421875" y="66" x="0" class="er attributeBoxOdd"/><text style="dominant-baseline: middle; font-size: 10.2px;" transform="translate(5,76.5)" y="0" x="0" id="text-entity-user-dad033c9-7a45-5f6a-ab5a-b5def405b2a6-attr-3-type" class="er entityLabel">username</text><rect height="21" width="59.0625" y="66" x="55.6357421875" class="er attributeBoxOdd"/><text style="dominant-baseline: middle; font-size: 10.2px;" transform="translate(60.6357421875,76.5)" y="0" x="0" id="text-entity-user-dad033c9-7a45-5f6a-ab5a-b5def405b2a6-attr-3-name" class="er entityLabel">VARCHAR</text><rect height="21" width="23.79498291015625" y="66" x="114.6982421875" class="er attributeBoxOdd"/><text style="dominant-baseline: middle; font-size: 10.2px;" transform="translate(119.6982421875,76.5)" y="0" x="0" id="text-entity-user-dad033c9-7a45-5f6a-ab5a-b5def405b2a6-attr-3-key" class="er entityLabel"/><rect height="21" width="55.6357421875" y="87" x="0" class="er attributeBoxEven"/><text style="dominant-baseline: middle; font-size: 10.2px;" transform="translate(5,97.5)" y="0" x="0" id="text-entity-user-dad033c9-7a45-5f6a-ab5a-b5def405b2a6-attr-4-type" class="er entityLabel">email</text><rect height="21" width="59.0625" y="87" x="55.6357421875" class="er attributeBoxEven"/><text style="dominant-baseline: middle; font-size: 10.2px;" transform="translate(60.6357421875,97.5)" y="0" x="0" id="text-entity-user-dad033c9-7a45-5f6a-ab5a-b5def405b2a6-attr-4-name" class="er entityLabel">VARCHAR</text><rect height="21" width="23.79498291015625" y="87" x="114.6982421875" class="er attributeBoxEven"/><text style="dominant-baseline: middle; font-size: 10.2px;" transform="translate(119.6982421875,97.5)" y="0" x="0" id="text-entity-user-dad033c9-7a45-5f6a-ab5a-b5def405b2a6-attr-4-key" class="er entityLabel"/><rect height="21" width="55.6357421875" y="108" x="0" class="er attributeBoxOdd"/><text style="dominant-baseline: middle; font-size: 10.2px;" transform="translate(5,118.5)" y="0" x="0" id="text-entity-user-dad033c9-7a45-5f6a-ab5a-b5def405b2a6-attr-5-type" class="er entityLabel">passhash</text><rect height="21" width="59.0625" y="108" x="55.6357421875" class="er attributeBoxOdd"/><text style="dominant-baseline: middle; font-size: 10.2px;" transform="translate(60.6357421875,118.5)" y="0" x="0" id="text-entity-user-dad033c9-7a45-5f6a-ab5a-b5def405b2a6-attr-5-name" class="er entityLabel">VARCHAR</text><rect height="21" width="23.79498291015625" y="108" x="114.6982421875" class="er attributeBoxOdd"/><text style="dominant-baseline: middle; font-size: 10.2px;" transform="translate(119.6982421875,118.5)" y="0" x="0" id="text-entity-user-dad033c9-7a45-5f6a-ab5a-b5def405b2a6-attr-5-key" class="er entityLabel"/><rect height="21" width="55.6357421875" y="129" x="0" class="er attributeBoxEven"/><text style="dominant-baseline: middle; font-size: 10.2px;" transform="translate(5,139.5)" y="0" x="0" id="text-entity-user-dad033c9-7a45-5f6a-ab5a-b5def405b2a6-attr-6-type" class="er entityLabel">role_id</text><rect height="21" width="59.0625" y="129" x="55.6357421875" class="er attributeBoxEven"/><text style="dominant-baseline: middle; font-size: 10.2px;" transform="translate(60.6357421875,139.5)" y="0" x="0" id="text-entity-user-dad033c9-7a45-5f6a-ab5a-b5def405b2a6-attr-6-name" class="er entityLabel">VARCHAR</text><rect height="21" width="23.79498291015625" y="129" x="114.6982421875" class="er attributeBoxEven"/><text style="dominant-baseline: middle; font-size: 10.2px;" transform="translate(119.6982421875,139.5)" y="0" x="0" id="text-entity-user-dad033c9-7a45-5f6a-ab5a-b5def405b2a6-attr-6-key" class="er entityLabel"/></g><g transform="translate(204.41889572143555,457 )" id="entity-album-78e332cb-b699-50af-8de8-dcdeeea04e1b"><rect height="150" width="142.13873291015625" y="0" x="0" class="er entityBox"/><text style="dominant-baseline: middle; text-anchor: middle; font-size: 12px;" transform="translate(71.06936645507812,12)" y="0" x="0" id="text-entity-album-78e332cb-b699-50af-8de8-dcdeeea04e1b" class="er entityLabel">album</text><rect height="21" width="59.28125" y="24" x="0" class="er attributeBoxOdd"/><text style="dominant-baseline: middle; font-size: 10.2px;" transform="translate(5,34.5)" y="0" x="0" id="text-entity-album-78e332cb-b699-50af-8de8-dcdeeea04e1b-attr-1-type" class="er entityLabel">id</text><rect height="21" width="59.0625" y="24" x="59.28125" class="er attributeBoxOdd"/><text style="dominant-baseline: middle; font-size: 10.2px;" transform="translate(64.28125,34.5)" y="0" x="0" id="text-entity-album-78e332cb-b699-50af-8de8-dcdeeea04e1b-attr-1-name" class="er entityLabel">INTEGER</text><rect height="21" width="23.79498291015625" y="24" x="118.34375" class="er attributeBoxOdd"/><text style="dominant-baseline: middle; font-size: 10.2px;" transform="translate(123.34375,34.5)" y="0" x="0" id="text-entity-album-78e332cb-b699-50af-8de8-dcdeeea04e1b-attr-1-key" class="er entityLabel">PK</text><rect height="21" width="59.28125" y="45" x="0" class="er attributeBoxEven"/><text style="dominant-baseline: middle; font-size: 10.2px;" transform="translate(5,55.5)" y="0" x="0" id="text-entity-album-78e332cb-b699-50af-8de8-dcdeeea04e1b-attr-2-type" class="er entityLabel">title</text><rect height="21" width="59.0625" y="45" x="59.28125" class="er attributeBoxEven"/><text style="dominant-baseline: middle; font-size: 10.2px;" transform="translate(64.28125,55.5)" y="0" x="0" id="text-entity-album-78e332cb-b699-50af-8de8-dcdeeea04e1b-attr-2-name" class="er entityLabel">VARCHAR</text><rect height="21" width="23.79498291015625" y="45" x="118.34375" class="er attributeBoxEven"/><text style="dominant-baseline: middle; font-size: 10.2px;" transform="translate(123.34375,55.5)" y="0" x="0" id="text-entity-album-78e332cb-b699-50af-8de8-dcdeeea04e1b-attr-2-key" class="er entityLabel"/><rect height="21" width="59.28125" y="66" x="0" class="er attributeBoxOdd"/><text style="dominant-baseline: middle; font-size: 10.2px;" transform="translate(5,76.5)" y="0" x="0" id="text-entity-album-78e332cb-b699-50af-8de8-dcdeeea04e1b-attr-3-type" class="er entityLabel">artist_id</text><rect height="21" width="59.0625" y="66" x="59.28125" class="er attributeBoxOdd"/><text style="dominant-baseline: middle; font-size: 10.2px;" transform="translate(64.28125,76.5)" y="0" x="0" id="text-entity-album-78e332cb-b699-50af-8de8-dcdeeea04e1b-attr-3-name" class="er entityLabel">INTEGER</text><rect height="21" width="23.79498291015625" y="66" x="118.34375" class="er attributeBoxOdd"/><text style="dominant-baseline: middle; font-size: 10.2px;" transform="translate(123.34375,76.5)" y="0" x="0" id="text-entity-album-78e332cb-b699-50af-8de8-dcdeeea04e1b-attr-3-key" class="er entityLabel"/><rect height="21" width="59.28125" y="87" x="0" class="er attributeBoxEven"/><text style="dominant-baseline: middle; font-size: 10.2px;" transform="translate(5,97.5)" y="0" x="0" id="text-entity-album-78e332cb-b699-50af-8de8-dcdeeea04e1b-attr-4-type" class="er entityLabel">description</text><rect height="21" width="59.0625" y="87" x="59.28125" class="er attributeBoxEven"/><text style="dominant-baseline: middle; font-size: 10.2px;" transform="translate(64.28125,97.5)" y="0" x="0" id="text-entity-album-78e332cb-b699-50af-8de8-dcdeeea04e1b-attr-4-name" class="er entityLabel">VARCHAR</text><rect height="21" width="23.79498291015625" y="87" x="118.34375" class="er attributeBoxEven"/><text style="dominant-baseline: middle; font-size: 10.2px;" transform="translate(123.34375,97.5)" y="0" x="0" id="text-entity-album-78e332cb-b699-50af-8de8-dcdeeea04e1b-attr-4-key" class="er entityLabel"/><rect height="21" width="59.28125" y="108" x="0" class="er attributeBoxOdd"/><text style="dominant-baseline: middle; font-size: 10.2px;" transform="translate(5,118.5)" y="0" x="0" id="text-entity-album-78e332cb-b699-50af-8de8-dcdeeea04e1b-attr-5-type" class="er entityLabel">tot_ratings</text><rect height="21" width="59.0625" y="108" x="59.28125" class="er attributeBoxOdd"/><text style="dominant-baseline: middle; font-size: 10.2px;" transform="translate(64.28125,118.5)" y="0" x="0" id="text-entity-album-78e332cb-b699-50af-8de8-dcdeeea04e1b-attr-5-name" class="er entityLabel">INTEGER</text><rect height="21" width="23.79498291015625" y="108" x="118.34375" class="er attributeBoxOdd"/><text style="dominant-baseline: middle; font-size: 10.2px;" transform="translate(123.34375,118.5)" y="0" x="0" id="text-entity-album-78e332cb-b699-50af-8de8-dcdeeea04e1b-attr-5-key" class="er entityLabel"/><rect height="21" width="59.28125" y="129" x="0" class="er attributeBoxEven"/><text style="dominant-baseline: middle; font-size: 10.2px;" transform="translate(5,139.5)" y="0" x="0" id="text-entity-album-78e332cb-b699-50af-8de8-dcdeeea04e1b-attr-6-type" class="er entityLabel">no_ratings</text><rect height="21" width="59.0625" y="129" x="59.28125" class="er attributeBoxEven"/><text style="dominant-baseline: middle; font-size: 10.2px;" transform="translate(64.28125,139.5)" y="0" x="0" id="text-entity-album-78e332cb-b699-50af-8de8-dcdeeea04e1b-attr-6-name" class="er entityLabel">INTEGER</text><rect height="21" width="23.79498291015625" y="129" x="118.34375" class="er attributeBoxEven"/><text style="dominant-baseline: middle; font-size: 10.2px;" transform="translate(123.34375,139.5)" y="0" x="0" id="text-entity-album-78e332cb-b699-50af-8de8-dcdeeea04e1b-attr-6-key" class="er entityLabel"/></g><g transform="translate(25.769248962402344,759.5 )" id="entity-playlist-c355fedd-0cad-5695-8199-c3ad0769ec61"><rect height="108" width="154.5552520751953" y="0" x="0" class="er entityBox"/><text style="dominant-baseline: middle; text-anchor: middle; font-size: 12px;" transform="translate(77.27762603759766,12)" y="0" x="0" id="text-entity-playlist-c355fedd-0cad-5695-8199-c3ad0769ec61" class="er entityLabel">playlist</text><rect height="21" width="69.80770874023438" y="24" x="0" class="er attributeBoxOdd"/><text style="dominant-baseline: middle; font-size: 10.2px;" transform="translate(5,34.5)" y="0" x="0" id="text-entity-playlist-c355fedd-0cad-5695-8199-c3ad0769ec61-attr-1-type" class="er entityLabel">id</text><rect height="21" width="60.95256042480469" y="24" x="69.80770874023438" class="er attributeBoxOdd"/><text style="dominant-baseline: middle; font-size: 10.2px;" transform="translate(74.80770874023438,34.5)" y="0" x="0" id="text-entity-playlist-c355fedd-0cad-5695-8199-c3ad0769ec61-attr-1-name" class="er entityLabel">INTEGER</text><rect height="21" width="23.79498291015625" y="24" x="130.76026916503906" class="er attributeBoxOdd"/><text style="dominant-baseline: middle; font-size: 10.2px;" transform="translate(135.76026916503906,34.5)" y="0" x="0" id="text-entity-playlist-c355fedd-0cad-5695-8199-c3ad0769ec61-attr-1-key" class="er entityLabel">PK</text><rect height="21" width="69.80770874023438" y="45" x="0" class="er attributeBoxEven"/><text style="dominant-baseline: middle; font-size: 10.2px;" transform="translate(5,55.5)" y="0" x="0" id="text-entity-playlist-c355fedd-0cad-5695-8199-c3ad0769ec61-attr-2-type" class="er entityLabel">title</text><rect height="21" width="60.95256042480469" y="45" x="69.80770874023438" class="er attributeBoxEven"/><text style="dominant-baseline: middle; font-size: 10.2px;" transform="translate(74.80770874023438,55.5)" y="0" x="0" id="text-entity-playlist-c355fedd-0cad-5695-8199-c3ad0769ec61-attr-2-name" class="er entityLabel">VARCHAR</text><rect height="21" width="23.79498291015625" y="45" x="130.76026916503906" class="er attributeBoxEven"/><text style="dominant-baseline: middle; font-size: 10.2px;" transform="translate(135.76026916503906,55.5)" y="0" x="0" id="text-entity-playlist-c355fedd-0cad-5695-8199-c3ad0769ec61-attr-2-key" class="er entityLabel"/><rect height="21" width="69.80770874023438" y="66" x="0" class="er attributeBoxOdd"/><text style="dominant-baseline: middle; font-size: 10.2px;" transform="translate(5,76.5)" y="0" x="0" id="text-entity-playlist-c355fedd-0cad-5695-8199-c3ad0769ec61-attr-3-type" class="er entityLabel">user_id</text><rect height="21" width="60.95256042480469" y="66" x="69.80770874023438" class="er attributeBoxOdd"/><text style="dominant-baseline: middle; font-size: 10.2px;" transform="translate(74.80770874023438,76.5)" y="0" x="0" id="text-entity-playlist-c355fedd-0cad-5695-8199-c3ad0769ec61-attr-3-name" class="er entityLabel">INTEGER</text><rect height="21" width="23.79498291015625" y="66" x="130.76026916503906" class="er attributeBoxOdd"/><text style="dominant-baseline: middle; font-size: 10.2px;" transform="translate(135.76026916503906,76.5)" y="0" x="0" id="text-entity-playlist-c355fedd-0cad-5695-8199-c3ad0769ec61-attr-3-key" class="er entityLabel"/><rect height="21" width="69.80770874023438" y="87" x="0" class="er attributeBoxEven"/><text style="dominant-baseline: middle; font-size: 10.2px;" transform="translate(5,97.5)" y="0" x="0" id="text-entity-playlist-c355fedd-0cad-5695-8199-c3ad0769ec61-attr-4-type" class="er entityLabel">date_created</text><rect height="21" width="60.95256042480469" y="87" x="69.80770874023438" class="er attributeBoxEven"/><text style="dominant-baseline: middle; font-size: 10.2px;" transform="translate(74.80770874023438,97.5)" y="0" x="0" id="text-entity-playlist-c355fedd-0cad-5695-8199-c3ad0769ec61-attr-4-name" class="er entityLabel">DATETIME</text><rect height="21" width="23.79498291015625" y="87" x="130.76026916503906" class="er attributeBoxEven"/><text style="dominant-baseline: middle; font-size: 10.2px;" transform="translate(135.76026916503906,97.5)" y="0" x="0" id="text-entity-playlist-c355fedd-0cad-5695-8199-c3ad0769ec61-attr-4-key" class="er entityLabel"/></g><g transform="translate(333.7453193664551,707 )" id="entity-song-4a561b3e-ff10-50e9-9602-fea547b01b5c"><rect height="213" width="154.5552520751953" y="0" x="0" class="er entityBox"/><text style="dominant-baseline: middle; text-anchor: middle; font-size: 12px;" transform="translate(77.27762603759766,12)" y="0" x="0" id="text-entity-song-4a561b3e-ff10-50e9-9602-fea547b01b5c" class="er entityLabel">song</text><rect height="21" width="69.80770874023438" y="24" x="0" class="er attributeBoxOdd"/><text style="dominant-baseline: middle; font-size: 10.2px;" transform="translate(5,34.5)" y="0" x="0" id="text-entity-song-4a561b3e-ff10-50e9-9602-fea547b01b5c-attr-1-type" class="er entityLabel">id</text><rect height="21" width="60.95256042480469" y="24" x="69.80770874023438" class="er attributeBoxOdd"/><text style="dominant-baseline: middle; font-size: 10.2px;" transform="translate(74.80770874023438,34.5)" y="0" x="0" id="text-entity-song-4a561b3e-ff10-50e9-9602-fea547b01b5c-attr-1-name" class="er entityLabel">INTEGER</text><rect height="21" width="23.79498291015625" y="24" x="130.76026916503906" class="er attributeBoxOdd"/><text style="dominant-baseline: middle; font-size: 10.2px;" transform="translate(135.76026916503906,34.5)" y="0" x="0" id="text-entity-song-4a561b3e-ff10-50e9-9602-fea547b01b5c-attr-1-key" class="er entityLabel">PK</text><rect height="21" width="69.80770874023438" y="45" x="0" class="er attributeBoxEven"/><text style="dominant-baseline: middle; font-size: 10.2px;" transform="translate(5,55.5)" y="0" x="0" id="text-entity-song-4a561b3e-ff10-50e9-9602-fea547b01b5c-attr-2-type" class="er entityLabel">title</text><rect height="21" width="60.95256042480469" y="45" x="69.80770874023438" class="er attributeBoxEven"/><text style="dominant-baseline: middle; font-size: 10.2px;" transform="translate(74.80770874023438,55.5)" y="0" x="0" id="text-entity-song-4a561b3e-ff10-50e9-9602-fea547b01b5c-attr-2-name" class="er entityLabel">VARCHAR</text><rect height="21" width="23.79498291015625" y="45" x="130.76026916503906" class="er attributeBoxEven"/><text style="dominant-baseline: middle; font-size: 10.2px;" transform="translate(135.76026916503906,55.5)" y="0" x="0" id="text-entity-song-4a561b3e-ff10-50e9-9602-fea547b01b5c-attr-2-key" class="er entityLabel"/><rect height="21" width="69.80770874023438" y="66" x="0" class="er attributeBoxOdd"/><text style="dominant-baseline: middle; font-size: 10.2px;" transform="translate(5,76.5)" y="0" x="0" id="text-entity-song-4a561b3e-ff10-50e9-9602-fea547b01b5c-attr-3-type" class="er entityLabel">artist_id</text><rect height="21" width="60.95256042480469" y="66" x="69.80770874023438" class="er attributeBoxOdd"/><text style="dominant-baseline: middle; font-size: 10.2px;" transform="translate(74.80770874023438,76.5)" y="0" x="0" id="text-entity-song-4a561b3e-ff10-50e9-9602-fea547b01b5c-attr-3-name" class="er entityLabel">INTEGER</text><rect height="21" width="23.79498291015625" y="66" x="130.76026916503906" class="er attributeBoxOdd"/><text style="dominant-baseline: middle; font-size: 10.2px;" transform="translate(135.76026916503906,76.5)" y="0" x="0" id="text-entity-song-4a561b3e-ff10-50e9-9602-fea547b01b5c-attr-3-key" class="er entityLabel"/><rect height="21" width="69.80770874023438" y="87" x="0" class="er attributeBoxEven"/><text style="dominant-baseline: middle; font-size: 10.2px;" transform="translate(5,97.5)" y="0" x="0" id="text-entity-song-4a561b3e-ff10-50e9-9602-fea547b01b5c-attr-4-type" class="er entityLabel">album_id</text><rect height="21" width="60.95256042480469" y="87" x="69.80770874023438" class="er attributeBoxEven"/><text style="dominant-baseline: middle; font-size: 10.2px;" transform="translate(74.80770874023438,97.5)" y="0" x="0" id="text-entity-song-4a561b3e-ff10-50e9-9602-fea547b01b5c-attr-4-name" class="er entityLabel">INTEGER</text><rect height="21" width="23.79498291015625" y="87" x="130.76026916503906" class="er attributeBoxEven"/><text style="dominant-baseline: middle; font-size: 10.2px;" transform="translate(135.76026916503906,97.5)" y="0" x="0" id="text-entity-song-4a561b3e-ff10-50e9-9602-fea547b01b5c-attr-4-key" class="er entityLabel"/><rect height="21" width="69.80770874023438" y="108" x="0" class="er attributeBoxOdd"/><text style="dominant-baseline: middle; font-size: 10.2px;" transform="translate(5,118.5)" y="0" x="0" id="text-entity-song-4a561b3e-ff10-50e9-9602-fea547b01b5c-attr-5-type" class="er entityLabel">lyrics</text><rect height="21" width="60.95256042480469" y="108" x="69.80770874023438" class="er attributeBoxOdd"/><text style="dominant-baseline: middle; font-size: 10.2px;" transform="translate(74.80770874023438,118.5)" y="0" x="0" id="text-entity-song-4a561b3e-ff10-50e9-9602-fea547b01b5c-attr-5-name" class="er entityLabel">VARCHAR</text><rect height="21" width="23.79498291015625" y="108" x="130.76026916503906" class="er attributeBoxOdd"/><text style="dominant-baseline: middle; font-size: 10.2px;" transform="translate(135.76026916503906,118.5)" y="0" x="0" id="text-entity-song-4a561b3e-ff10-50e9-9602-fea547b01b5c-attr-5-key" class="er entityLabel"/><rect height="21" width="69.80770874023438" y="129" x="0" class="er attributeBoxEven"/><text style="dominant-baseline: middle; font-size: 10.2px;" transform="translate(5,139.5)" y="0" x="0" id="text-entity-song-4a561b3e-ff10-50e9-9602-fea547b01b5c-attr-6-type" class="er entityLabel">genre</text><rect height="21" width="60.95256042480469" y="129" x="69.80770874023438" class="er attributeBoxEven"/><text style="dominant-baseline: middle; font-size: 10.2px;" transform="translate(74.80770874023438,139.5)" y="0" x="0" id="text-entity-song-4a561b3e-ff10-50e9-9602-fea547b01b5c-attr-6-name" class="er entityLabel">VARCHAR</text><rect height="21" width="23.79498291015625" y="129" x="130.76026916503906" class="er attributeBoxEven"/><text style="dominant-baseline: middle; font-size: 10.2px;" transform="translate(135.76026916503906,139.5)" y="0" x="0" id="text-entity-song-4a561b3e-ff10-50e9-9602-fea547b01b5c-attr-6-key" class="er entityLabel"/><rect height="21" width="69.80770874023438" y="150" x="0" class="er attributeBoxOdd"/><text style="dominant-baseline: middle; font-size: 10.2px;" transform="translate(5,160.5)" y="0" x="0" id="text-entity-song-4a561b3e-ff10-50e9-9602-fea547b01b5c-attr-7-type" class="er entityLabel">date_created</text><rect height="21" width="60.95256042480469" y="150" x="69.80770874023438" class="er attributeBoxOdd"/><text style="dominant-baseline: middle; font-size: 10.2px;" transform="translate(74.80770874023438,160.5)" y="0" x="0" id="text-entity-song-4a561b3e-ff10-50e9-9602-fea547b01b5c-attr-7-name" class="er entityLabel">DATETIME</text><rect height="21" width="23.79498291015625" y="150" x="130.76026916503906" class="er attributeBoxOdd"/><text style="dominant-baseline: middle; font-size: 10.2px;" transform="translate(135.76026916503906,160.5)" y="0" x="0" id="text-entity-song-4a561b3e-ff10-50e9-9602-fea547b01b5c-attr-7-key" class="er entityLabel"/><rect height="21" width="69.80770874023438" y="171" x="0" class="er attributeBoxEven"/><text style="dominant-baseline: middle; font-size: 10.2px;" transform="translate(5,181.5)" y="0" x="0" id="text-entity-song-4a561b3e-ff10-50e9-9602-fea547b01b5c-attr-8-type" class="er entityLabel">tot_ratings</text><rect height="21" width="60.95256042480469" y="171" x="69.80770874023438" class="er attributeBoxEven"/><text style="dominant-baseline: middle; font-size: 10.2px;" transform="translate(74.80770874023438,181.5)" y="0" x="0" id="text-entity-song-4a561b3e-ff10-50e9-9602-fea547b01b5c-attr-8-name" class="er entityLabel">INTEGER</text><rect height="21" width="23.79498291015625" y="171" x="130.76026916503906" class="er attributeBoxEven"/><text style="dominant-baseline: middle; font-size: 10.2px;" transform="translate(135.76026916503906,181.5)" y="0" x="0" id="text-entity-song-4a561b3e-ff10-50e9-9602-fea547b01b5c-attr-8-key" class="er entityLabel"/><rect height="21" width="69.80770874023438" y="192" x="0" class="er attributeBoxOdd"/><text style="dominant-baseline: middle; font-size: 10.2px;" transform="translate(5,202.5)" y="0" x="0" id="text-entity-song-4a561b3e-ff10-50e9-9602-fea547b01b5c-attr-9-type" class="er entityLabel">no_ratings</text><rect height="21" width="60.95256042480469" y="192" x="69.80770874023438" class="er attributeBoxOdd"/><text style="dominant-baseline: middle; font-size: 10.2px;" transform="translate(74.80770874023438,202.5)" y="0" x="0" id="text-entity-song-4a561b3e-ff10-50e9-9602-fea547b01b5c-attr-9-name" class="er entityLabel">INTEGER</text><rect height="21" width="23.79498291015625" y="192" x="130.76026916503906" class="er attributeBoxOdd"/><text style="dominant-baseline: middle; font-size: 10.2px;" transform="translate(135.76026916503906,202.5)" y="0" x="0" id="text-entity-song-4a561b3e-ff10-50e9-9602-fea547b01b5c-attr-9-key" class="er entityLabel"/></g><g transform="translate(20,1041 )" id="entity-playlistsongassociation-bb77a628-bc21-5868-88e5-987b93791a4a"><rect height="66" width="166.09375" y="0" x="0" class="er entityBox"/><text style="dominant-baseline: middle; text-anchor: middle; font-size: 12px;" transform="translate(83.046875,12)" y="0" x="0" id="text-entity-playlistsongassociation-bb77a628-bc21-5868-88e5-987b93791a4a" class="er entityLabel">playlist_song_association</text><rect height="21" width="82.93276977539062" y="24" x="0" class="er attributeBoxOdd"/><text style="dominant-baseline: middle; font-size: 10.2px;" transform="translate(5,34.5)" y="0" x="0" id="text-entity-playlistsongassociation-bb77a628-bc21-5868-88e5-987b93791a4a-attr-1-type" class="er entityLabel">playlist_id</text><rect height="21" width="83.16098022460938" y="24" x="82.93276977539062" class="er attributeBoxOdd"/><text style="dominant-baseline: middle; font-size: 10.2px;" transform="translate(87.93276977539062,34.5)" y="0" x="0" id="text-entity-playlistsongassociation-bb77a628-bc21-5868-88e5-987b93791a4a-attr-1-name" class="er entityLabel">INTEGER</text><rect height="21" width="82.93276977539062" y="45" x="0" class="er attributeBoxEven"/><text style="dominant-baseline: middle; font-size: 10.2px;" transform="translate(5,55.5)" y="0" x="0" id="text-entity-playlistsongassociation-bb77a628-bc21-5868-88e5-987b93791a4a-attr-2-type" class="er entityLabel">song_id</text><rect height="21" width="83.16098022460938" y="45" x="82.93276977539062" class="er attributeBoxEven"/><text style="dominant-baseline: middle; font-size: 10.2px;" transform="translate(87.93276977539062,55.5)" y="0" x="0" id="text-entity-playlistsongassociation-bb77a628-bc21-5868-88e5-987b93791a4a-attr-2-name" class="er entityLabel">INTEGER</text></g><g transform="translate(509.9071578979492,1030.5 )" id="entity-flags-e570b757-6150-566f-bab1-7fd7ba45990e"><rect height="87" width="125.11215209960938" y="0" x="0" class="er entityBox"/><text style="dominant-baseline: middle; text-anchor: middle; font-size: 12px;" transform="translate(62.55607604980469,12)" y="0" x="0" id="text-entity-flags-e570b757-6150-566f-bab1-7fd7ba45990e" class="er entityLabel">flags</text><rect height="21" width="46.020294189453125" y="24" x="0" class="er attributeBoxOdd"/><text style="dominant-baseline: middle; font-size: 10.2px;" transform="translate(5,34.5)" y="0" x="0" id="text-entity-flags-e570b757-6150-566f-bab1-7fd7ba45990e-attr-1-type" class="er entityLabel">id</text><rect height="21" width="55.296875" y="24" x="46.020294189453125" class="er attributeBoxOdd"/><text style="dominant-baseline: middle; font-size: 10.2px;" transform="translate(51.020294189453125,34.5)" y="0" x="0" id="text-entity-flags-e570b757-6150-566f-bab1-7fd7ba45990e-attr-1-name" class="er entityLabel">INTEGER</text><rect height="21" width="23.79498291015625" y="24" x="101.31716918945312" class="er attributeBoxOdd"/><text style="dominant-baseline: middle; font-size: 10.2px;" transform="translate(106.31716918945312,34.5)" y="0" x="0" id="text-entity-flags-e570b757-6150-566f-bab1-7fd7ba45990e-attr-1-key" class="er entityLabel">PK</text><rect height="21" width="46.020294189453125" y="45" x="0" class="er attributeBoxEven"/><text style="dominant-baseline: middle; font-size: 10.2px;" transform="translate(5,55.5)" y="0" x="0" id="text-entity-flags-e570b757-6150-566f-bab1-7fd7ba45990e-attr-2-type" class="er entityLabel">user_id</text><rect height="21" width="55.296875" y="45" x="46.020294189453125" class="er attributeBoxEven"/><text style="dominant-baseline: middle; font-size: 10.2px;" transform="translate(51.020294189453125,55.5)" y="0" x="0" id="text-entity-flags-e570b757-6150-566f-bab1-7fd7ba45990e-attr-2-name" class="er entityLabel">INTEGER</text><rect height="21" width="23.79498291015625" y="45" x="101.31716918945312" class="er attributeBoxEven"/><text style="dominant-baseline: middle; font-size: 10.2px;" transform="translate(106.31716918945312,55.5)" y="0" x="0" id="text-entity-flags-e570b757-6150-566f-bab1-7fd7ba45990e-attr-2-key" class="er entityLabel"/><rect height="21" width="46.020294189453125" y="66" x="0" class="er attributeBoxOdd"/><text style="dominant-baseline: middle; font-size: 10.2px;" transform="translate(5,76.5)" y="0" x="0" id="text-entity-flags-e570b757-6150-566f-bab1-7fd7ba45990e-attr-3-type" class="er entityLabel">song_id</text><rect height="21" width="55.296875" y="66" x="46.020294189453125" class="er attributeBoxOdd"/><text style="dominant-baseline: middle; font-size: 10.2px;" transform="translate(51.020294189453125,76.5)" y="0" x="0" id="text-entity-flags-e570b757-6150-566f-bab1-7fd7ba45990e-attr-3-name" class="er entityLabel">INTEGER</text><rect height="21" width="23.79498291015625" y="66" x="101.31716918945312" class="er attributeBoxOdd"/><text style="dominant-baseline: middle; font-size: 10.2px;" transform="translate(106.31716918945312,76.5)" y="0" x="0" id="text-entity-flags-e570b757-6150-566f-bab1-7fd7ba45990e-attr-3-key" class="er entityLabel"/></g><g transform="translate(735.1964416503906,1020 )" id="entity-ratings-33a840e1-4547-53ae-b2c7-20c96fff0fb3"><rect height="108" width="125.11215209960938" y="0" x="0" class="er entityBox"/><text style="dominant-baseline: middle; text-anchor: middle; font-size: 12px;" transform="translate(62.55607604980469,12)" y="0" x="0" id="text-entity-ratings-33a840e1-4547-53ae-b2c7-20c96fff0fb3" class="er entityLabel">ratings</text><rect height="21" width="46.020294189453125" y="24" x="0" class="er attributeBoxOdd"/><text style="dominant-baseline: middle; font-size: 10.2px;" transform="translate(5,34.5)" y="0" x="0" id="text-entity-ratings-33a840e1-4547-53ae-b2c7-20c96fff0fb3-attr-1-type" class="er entityLabel">id</text><rect height="21" width="55.296875" y="24" x="46.020294189453125" class="er attributeBoxOdd"/><text style="dominant-baseline: middle; font-size: 10.2px;" transform="translate(51.020294189453125,34.5)" y="0" x="0" id="text-entity-ratings-33a840e1-4547-53ae-b2c7-20c96fff0fb3-attr-1-name" class="er entityLabel">INTEGER</text><rect height="21" width="23.79498291015625" y="24" x="101.31716918945312" class="er attributeBoxOdd"/><text style="dominant-baseline: middle; font-size: 10.2px;" transform="translate(106.31716918945312,34.5)" y="0" x="0" id="text-entity-ratings-33a840e1-4547-53ae-b2c7-20c96fff0fb3-attr-1-key" class="er entityLabel">PK</text><rect height="21" width="46.020294189453125" y="45" x="0" class="er attributeBoxEven"/><text style="dominant-baseline: middle; font-size: 10.2px;" transform="translate(5,55.5)" y="0" x="0" id="text-entity-ratings-33a840e1-4547-53ae-b2c7-20c96fff0fb3-attr-2-type" class="er entityLabel">user_id</text><rect height="21" width="55.296875" y="45" x="46.020294189453125" class="er attributeBoxEven"/><text style="dominant-baseline: middle; font-size: 10.2px;" transform="translate(51.020294189453125,55.5)" y="0" x="0" id="text-entity-ratings-33a840e1-4547-53ae-b2c7-20c96fff0fb3-attr-2-name" class="er entityLabel">INTEGER</text><rect height="21" width="23.79498291015625" y="45" x="101.31716918945312" class="er attributeBoxEven"/><text style="dominant-baseline: middle; font-size: 10.2px;" transform="translate(106.31716918945312,55.5)" y="0" x="0" id="text-entity-ratings-33a840e1-4547-53ae-b2c7-20c96fff0fb3-attr-2-key" class="er entityLabel"/><rect height="21" width="46.020294189453125" y="66" x="0" class="er attributeBoxOdd"/><text style="dominant-baseline: middle; font-size: 10.2px;" transform="translate(5,76.5)" y="0" x="0" id="text-entity-ratings-33a840e1-4547-53ae-b2c7-20c96fff0fb3-attr-3-type" class="er entityLabel">song_id</text><rect height="21" width="55.296875" y="66" x="46.020294189453125" class="er attributeBoxOdd"/><text style="dominant-baseline: middle; font-size: 10.2px;" transform="translate(51.020294189453125,76.5)" y="0" x="0" id="text-entity-ratings-33a840e1-4547-53ae-b2c7-20c96fff0fb3-attr-3-name" class="er entityLabel">INTEGER</text><rect height="21" width="23.79498291015625" y="66" x="101.31716918945312" class="er attributeBoxOdd"/><text style="dominant-baseline: middle; font-size: 10.2px;" transform="translate(106.31716918945312,76.5)" y="0" x="0" id="text-entity-ratings-33a840e1-4547-53ae-b2c7-20c96fff0fb3-attr-3-key" class="er entityLabel"/><rect height="21" width="46.020294189453125" y="87" x="0" class="er attributeBoxEven"/><text style="dominant-baseline: middle; font-size: 10.2px;" transform="translate(5,97.5)" y="0" x="0" id="text-entity-ratings-33a840e1-4547-53ae-b2c7-20c96fff0fb3-attr-4-type" class="er entityLabel">rating</text><rect height="21" width="55.296875" y="87" x="46.020294189453125" class="er attributeBoxEven"/><text style="dominant-baseline: middle; font-size: 10.2px;" transform="translate(51.020294189453125,97.5)" y="0" x="0" id="text-entity-ratings-33a840e1-4547-53ae-b2c7-20c96fff0fb3-attr-4-name" class="er entityLabel">INTEGER</text><rect height="21" width="23.79498291015625" y="87" x="101.31716918945312" class="er attributeBoxEven"/><text style="dominant-baseline: middle; font-size: 10.2px;" transform="translate(106.31716918945312,97.5)" y="0" x="0" id="text-entity-ratings-33a840e1-4547-53ae-b2c7-20c96fff0fb3-attr-4-key" class="er entityLabel"/></g><rect height="0" width="0" y="157" x="496.5580139160156" class="er relationshipLabelBox"/><text style="text-anchor: middle; dominant-baseline: middle; font-size: 12px;" y="157" x="496.5580139160156" id="rel1" class="er relationshipLabel"/><rect height="0" width="0" y="375.48663330078125" x="335.1587219238281" class="er relationshipLabelBox"/><text style="text-anchor: middle; dominant-baseline: middle; font-size: 12px;" y="375.48663330078125" x="335.1587219238281" id="rel2" class="er relationshipLabel"/><rect height="0" width="0" y="435.9882507324219" x="128.90440368652344" class="er relationshipLabelBox"/><text style="text-anchor: middle; dominant-baseline: middle; font-size: 12px;" y="435.9882507324219" x="128.90440368652344" id="rel3" class="er relationshipLabel"/><rect height="0" width="0" y="671.3746948242188" x="291.7397766113281" class="er relationshipLabelBox"/><text style="text-anchor: middle; dominant-baseline: middle; font-size: 12px;" y="671.3746948242188" x="291.7397766113281" id="rel4" class="er relationshipLabel"/><rect height="0" width="0" y="534.3177490234375" x="496.3796691894531" class="er relationshipLabelBox"/><text style="text-anchor: middle; dominant-baseline: middle; font-size: 12px;" y="534.3177490234375" x="496.3796691894531" id="rel5" class="er relationshipLabel"/><rect height="0" width="0" y="916.0716552734375" x="157.555908203125" class="er relationshipLabelBox"/><text style="text-anchor: middle; dominant-baseline: middle; font-size: 12px;" y="916.0716552734375" x="157.555908203125" id="rel6" class="er relationshipLabel"/><rect height="0" width="0" y="954.2779541015625" x="110.45892333984375" class="er relationshipLabelBox"/><text style="text-anchor: middle; dominant-baseline: middle; font-size: 12px;" y="954.2779541015625" x="110.45892333984375" id="rel7" class="er relationshipLabel"/><rect height="0" width="0" y="983.1591796875" x="465.5108947753906" class="er relationshipLabelBox"/><text style="text-anchor: middle; dominant-baseline: middle; font-size: 12px;" y="983.1591796875" x="465.5108947753906" id="rel8" class="er relationshipLabel"/><rect height="0" width="0" y="679.720458984375" x="635.0189819335938" class="er relationshipLabelBox"/><text style="text-anchor: middle; dominant-baseline: middle; font-size: 12px;" y="679.720458984375" x="635.0189819335938" id="rel9" class="er relationshipLabel"/><rect height="0" width="0" y="923.3653564453125" x="635.5131225585938" class="er relationshipLabelBox"/><text style="text-anchor: middle; dominant-baseline: middle; font-size: 12px;" y="923.3653564453125" x="635.5131225585938" id="rel10" class="er relationshipLabel"/><rect height="0" width="0" y="580.982421875" x="847.5750122070312" class="er relationshipLabelBox"/><text style="text-anchor: middle; dominant-baseline: middle; font-size: 12px;" y="580.982421875" x="847.5750122070312" id="rel11" class="er relationshipLabel"/></svg>